<svg width="53" height="89" viewBox="0 0 53 89" fill="none" xmlns="http://www.w3.org/2000/svg">
<path fill-rule="evenodd" clip-rule="evenodd" d="M26.4928 1.85229C13.3836 1.85229 2.72075 12.5601 2.72075 25.7213C2.72092 32.3504 13.0669 49.3627 20.6222 61.7844C22.9549 65.618 25.0132 69.0035 26.4924 71.6202C27.9697 69.0031 30.0278 65.6177 32.3607 61.783C39.9161 49.3617 50.2641 32.3503 50.2641 25.7213C50.2642 12.5599 39.5991 1.85254 26.4928 1.85229H26.4928ZM26.4928 73.9971C26.2081 73.9971 25.9476 73.8418 25.8103 73.5917C24.3416 70.8825 22.0044 67.042 19.3004 62.5952C11.2225 49.3149 1.1709 32.7879 1.1709 25.721C1.17124 11.7016 12.5301 0.296143 26.4924 0.296143C40.4528 0.296027 51.8118 11.7017 51.8118 25.721C51.812 32.7873 41.7604 49.3144 33.6844 62.5937C30.9787 67.041 28.6416 70.8821 27.1725 73.5916C27.0354 73.8416 26.7749 73.9974 26.4928 73.9971L26.4928 73.9971Z" fill="#FF0000"/>
<path fill-rule="evenodd" clip-rule="evenodd" d="M26.4928 13.5238C21.5628 13.5238 17.5528 17.5501 17.5528 22.4985C17.5531 27.4464 21.5625 31.4727 26.4924 31.4727C31.4205 31.4725 35.43 27.4468 35.43 22.4985C35.4302 17.5499 31.4203 13.5242 26.4928 13.5238ZM26.4928 33.0284C20.7092 33.0284 16.0029 28.3049 16.0029 22.4985C16.003 16.6918 20.7089 11.968 26.4924 11.968C32.2741 11.9678 36.9798 16.6919 36.9798 22.4985C36.9798 28.3049 32.2739 33.0289 26.4928 33.0284Z" fill="#FF0000"/>
<path fill-rule="evenodd" clip-rule="evenodd" d="M17.7142 59.9865C8.59294 62.1287 2.50675 67.4039 2.50675 73.2197C2.50698 81.063 13.2666 87.4439 26.4923 87.4439C39.7163 87.4437 50.4759 81.0629 50.4759 73.2197C50.4762 67.4038 44.3897 62.1291 35.2685 59.9865C34.7317 60.869 34.205 61.7366 33.6884 62.5844C30.9823 67.036 28.6434 70.8806 27.1724 73.592C27.0353 73.842 26.7749 73.9978 26.4923 73.9978C26.208 73.9974 25.9475 73.8421 25.8102 73.592C24.3392 70.8809 22.0024 67.0372 19.2942 62.5864C18.7776 61.7375 18.2509 60.8698 17.7142 59.9864L17.7142 59.9865ZM26.4927 89.0001C19.7383 89.0001 13.3775 87.3999 8.58283 84.4941C3.66523 81.5139 0.957031 77.5102 0.957031 73.2197C0.957378 69.8356 2.64198 66.6176 5.83238 63.9128C8.8736 61.3336 13.0547 59.4084 17.922 58.3442C18.245 58.2732 18.5758 58.4163 18.7494 58.6997C19.3833 59.7471 20.0086 60.7751 20.618 61.7753C22.9511 65.6131 25.0131 69.0016 26.4923 71.6203C27.9697 69.0009 30.0318 65.612 32.3666 61.7735C32.9741 60.7738 33.5996 59.7469 34.2332 58.6997C34.4071 58.4158 34.7377 58.2737 35.0607 58.3442C39.9283 59.4084 44.1092 61.3338 47.1503 63.9128C50.3409 66.6174 52.0257 69.8358 52.0257 73.2197C52.0258 77.5102 49.3176 81.5143 44.3998 84.4941C39.6032 87.3999 33.2445 89.0002 26.4927 89.0001L26.4927 89.0001Z" fill="#FF0000"/>
<path fill-rule="evenodd" clip-rule="evenodd" d="M22.2829 67.5169C18.3455 68.4984 15.7403 70.7497 15.7403 73.2197C15.7407 76.5833 20.6641 79.4254 26.492 79.4254C32.3183 79.4254 37.2418 76.5837 37.2418 73.2197C37.2419 70.7496 34.6366 68.4984 30.6995 67.5169C29.0573 70.2509 27.9612 72.1381 27.1721 73.5919C27.0351 73.8419 26.7746 73.9977 26.4921 73.9977C26.2078 73.9974 25.9472 73.8421 25.81 73.5919C25.0213 72.1373 23.9252 70.2505 22.283 67.5168L22.2829 67.5169ZM26.4924 80.9814C23.2737 80.9814 20.2363 80.2154 17.9398 78.824C15.5227 77.3583 14.1904 75.3683 14.1904 73.2197C14.1905 69.8862 17.5262 66.9333 22.4944 65.8713C22.8155 65.8018 23.1483 65.946 23.3178 66.2293C24.6962 68.5149 25.711 70.24 26.492 71.6203C27.271 70.24 28.286 68.5149 29.6642 66.2293C29.8342 65.9454 30.1648 65.802 30.4876 65.8713C35.4562 66.9329 38.7915 69.8862 38.7915 73.2197C38.7919 75.3679 37.4597 77.3586 35.0421 78.824C32.7459 80.2154 29.7086 80.9818 26.4924 80.9814H26.4924Z" fill="#FF0000"/>
</svg>
